<?xml version="1.0" standalone="no"?>
<!DOCTYPE svg PUBLIC "-//W3C//DTD SVG 20010904//EN"
 "http://www.w3.org/TR/2001/REC-SVG-20010904/DTD/svg10.dtd">
<svg version="1.0" xmlns="http://www.w3.org/2000/svg"
 width="100.000000pt" height="100.000000pt" viewBox="0 0 100.000000 100.000000"
 preserveAspectRatio="xMidYMid meet">
<metadata>
Created by potrace 1.16, written by Peter Selinger 2001-2019
</metadata>
<g transform="translate(0.000000,100.000000) scale(0.100000,-0.100000)"
fill="#000000" stroke="none">
<path d="M450 890 c0 -5 9 -10 20 -10 14 0 20 -7 20 -24 0 -21 -6 -24 -52 -29
-48 -6 -79 0 -50 10 12 5 17 33 5 33 -4 0 -22 -5 -40 -12 -38 -14 -43 -33 -11
-42 21 -5 19 -8 -22 -34 -32 -21 -49 -26 -58 -19 -9 7 -10 13 -1 24 9 11 9 17
0 26 -9 9 -20 3 -48 -26 -29 -28 -35 -39 -26 -48 9 -9 15 -9 26 0 11 9 17 8
24 -1 7 -9 2 -26 -19 -58 -26 -41 -29 -43 -34 -22 -9 32 -28 27 -42 -11 -7
-18 -12 -36 -12 -40 0 -12 28 -7 33 6 10 28 16 -3 10 -51 -5 -46 -8 -52 -29
-52 -17 0 -24 6 -24 20 0 11 -4 20 -10 20 -5 0 -10 -22 -10 -50 0 -27 5 -50
10 -50 6 0 10 9 10 20 0 14 7 20 24 20 21 0 24 -6 29 -52 6 -48 0 -79 -10 -50
-5 12 -33 17 -33 5 0 -4 5 -22 12 -40 14 -38 33 -43 42 -11 5 21 8 19 34 -22
21 -32 26 -49 19 -58 -7 -9 -13 -10 -24 -1 -11 9 -17 9 -26 0 -9 -9 -3 -20 26
-48 28 -29 39 -35 48 -26 9 9 9 15 0 26 -9 11 -8 17 1 24 9 7 26 2 58 -19 41
-26 43 -29 22 -34 -32 -9 -27 -28 11 -42 18 -7 36 -12 40 -12 12 0 7 28 -5 33
-29 10 2 16 50 10 46 -5 52 -8 52 -29 0 -17 -6 -24 -20 -24 -11 0 -20 -4 -20
-10 0 -5 23 -10 50 -10 28 0 50 5 50 10 0 6 -9 10 -20 10 -14 0 -20 7 -20 24
0 21 6 24 52 29 48 6 79 0 50 -10 -12 -5 -17 -33 -5 -33 4 0 22 5 40 12 38 14
43 33 11 42 -21 5 -19 8 22 34 32 21 49 26 58 19 9 -7 10 -13 1 -24 -9 -11 -9
-17 0 -26 9 -9 20 -3 48 26 29 28 35 39 26 48 -9 9 -15 9 -26 0 -11 -9 -17 -8
-24 1 -7 9 -2 26 19 58 26 41 29 43 34 22 9 -32 28 -27 42 11 7 18 12 36 12
40 0 12 -28 7 -33 -5 -10 -29 -16 2 -10 50 5 46 8 52 29 52 17 0 24 -6 24 -20
0 -11 5 -20 10 -20 6 0 10 23 10 50 0 28 -4 50 -10 50 -5 0 -10 -9 -10 -20 0
-14 -7 -20 -24 -20 -21 0 -24 6 -29 52 -6 48 0 79 10 51 5 -13 33 -18 33 -6 0
4 -5 22 -12 40 -14 38 -33 43 -42 11 -5 -21 -8 -19 -34 22 -21 32 -26 49 -19
58 7 9 13 10 24 1 11 -9 17 -9 26 0 9 9 3 20 -26 48 -28 29 -39 35 -48 26 -9
-9 -9 -15 0 -26 9 -11 8 -17 -1 -24 -9 -7 -26 -2 -58 19 -41 26 -43 29 -22 34
32 9 27 28 -11 42 -18 7 -36 12 -40 12 -12 0 -7 -28 6 -33 28 -10 -3 -16 -51
-10 -46 5 -52 8 -52 29 0 17 6 24 20 24 11 0 20 5 20 10 0 6 -22 10 -50 10
-27 0 -50 -4 -50 -10z m187 -115 c106 -52 167 -152 167 -275 0 -88 -22 -145
-79 -208 -117 -130 -333 -130 -450 0 -57 63 -79 120 -79 208 0 85 21 143 73
203 91 104 242 133 368 72z"/>
</g>
</svg>
